<svg width="42" height="42" viewBox="0 0 42 42" fill="none" xmlns="http://www.w3.org/2000/svg">
<mask id="path-1-outside-1_1_3220" maskUnits="userSpaceOnUse" x="1.9375" y="0.21875" width="38" height="39" fill="black">
<rect fill="white" x="1.9375" y="0.21875" width="38" height="39"/>
<path d="M20.9375 35.875C18.7604 35.875 16.7083 35.4583 14.7812 34.625C12.8646 33.7917 11.1719 32.6406 9.70312 31.1719C8.23438 29.7031 7.08333 28.0104 6.25 26.0938C5.41667 24.1667 5 22.1146 5 19.9375C5 17.7604 5.41667 15.7135 6.25 13.7969C7.08333 11.8698 8.22917 10.1719 9.6875 8.70312C11.1562 7.23438 12.849 6.08333 14.7656 5.25C16.6927 4.41667 18.7448 4 20.9219 4C23.099 4 25.151 4.41667 27.0781 5.25C29.0052 6.08333 30.7031 7.23438 32.1719 8.70312C33.6406 10.1719 34.7917 11.8698 35.625 13.7969C36.4583 15.7135 36.875 17.7604 36.875 19.9375C36.875 22.1146 36.4583 24.1667 35.625 26.0938C34.7917 28.0104 33.6406 29.7031 32.1719 31.1719C30.7031 32.6406 29.0052 33.7917 27.0781 34.625C25.1615 35.4583 23.1146 35.875 20.9375 35.875ZM19.1719 27.5625C19.4427 27.5625 19.6875 27.5 19.9062 27.375C20.125 27.25 20.3177 27.0625 20.4844 26.8125L27.8281 15.2344C27.9219 15.0781 28.0104 14.9115 28.0938 14.7344C28.1771 14.5573 28.2188 14.3802 28.2188 14.2031C28.2188 13.8385 28.0833 13.5521 27.8125 13.3438C27.5417 13.125 27.2396 13.0156 26.9062 13.0156C26.4479 13.0156 26.0729 13.2552 25.7812 13.7344L19.1094 24.4531L15.9375 20.3594C15.7396 20.099 15.5469 19.9219 15.3594 19.8281C15.1823 19.7344 14.9792 19.6875 14.75 19.6875C14.3958 19.6875 14.099 19.8177 13.8594 20.0781C13.6198 20.3281 13.5 20.6302 13.5 20.9844C13.5 21.1615 13.5312 21.3385 13.5938 21.5156C13.6667 21.6823 13.7604 21.8438 13.875 22L17.7969 26.8125C18.0052 27.0833 18.2188 27.276 18.4375 27.3906C18.6562 27.5052 18.901 27.5625 19.1719 27.5625Z"/>
</mask>
<path d="M20.9375 35.875C18.7604 35.875 16.7083 35.4583 14.7812 34.625C12.8646 33.7917 11.1719 32.6406 9.70312 31.1719C8.23438 29.7031 7.08333 28.0104 6.25 26.0938C5.41667 24.1667 5 22.1146 5 19.9375C5 17.7604 5.41667 15.7135 6.25 13.7969C7.08333 11.8698 8.22917 10.1719 9.6875 8.70312C11.1562 7.23438 12.849 6.08333 14.7656 5.25C16.6927 4.41667 18.7448 4 20.9219 4C23.099 4 25.151 4.41667 27.0781 5.25C29.0052 6.08333 30.7031 7.23438 32.1719 8.70312C33.6406 10.1719 34.7917 11.8698 35.625 13.7969C36.4583 15.7135 36.875 17.7604 36.875 19.9375C36.875 22.1146 36.4583 24.1667 35.625 26.0938C34.7917 28.0104 33.6406 29.7031 32.1719 31.1719C30.7031 32.6406 29.0052 33.7917 27.0781 34.625C25.1615 35.4583 23.1146 35.875 20.9375 35.875ZM19.1719 27.5625C19.4427 27.5625 19.6875 27.5 19.9062 27.375C20.125 27.25 20.3177 27.0625 20.4844 26.8125L27.8281 15.2344C27.9219 15.0781 28.0104 14.9115 28.0938 14.7344C28.1771 14.5573 28.2188 14.3802 28.2188 14.2031C28.2188 13.8385 28.0833 13.5521 27.8125 13.3438C27.5417 13.125 27.2396 13.0156 26.9062 13.0156C26.4479 13.0156 26.0729 13.2552 25.7812 13.7344L19.1094 24.4531L15.9375 20.3594C15.7396 20.099 15.5469 19.9219 15.3594 19.8281C15.1823 19.7344 14.9792 19.6875 14.75 19.6875C14.3958 19.6875 14.099 19.8177 13.8594 20.0781C13.6198 20.3281 13.5 20.6302 13.5 20.9844C13.5 21.1615 13.5312 21.3385 13.5938 21.5156C13.6667 21.6823 13.7604 21.8438 13.875 22L17.7969 26.8125C18.0052 27.0833 18.2188 27.276 18.4375 27.3906C18.6562 27.5052 18.901 27.5625 19.1719 27.5625Z" fill="white"/>
<path d="M20.9375 35.875C18.7604 35.875 16.7083 35.4583 14.7812 34.625C12.8646 33.7917 11.1719 32.6406 9.70312 31.1719C8.23438 29.7031 7.08333 28.0104 6.25 26.0938C5.41667 24.1667 5 22.1146 5 19.9375C5 17.7604 5.41667 15.7135 6.25 13.7969C7.08333 11.8698 8.22917 10.1719 9.6875 8.70312C11.1562 7.23438 12.849 6.08333 14.7656 5.25C16.6927 4.41667 18.7448 4 20.9219 4C23.099 4 25.151 4.41667 27.0781 5.25C29.0052 6.08333 30.7031 7.23438 32.1719 8.70312C33.6406 10.1719 34.7917 11.8698 35.625 13.7969C36.4583 15.7135 36.875 17.7604 36.875 19.9375C36.875 22.1146 36.4583 24.1667 35.625 26.0938C34.7917 28.0104 33.6406 29.7031 32.1719 31.1719C30.7031 32.6406 29.0052 33.7917 27.0781 34.625C25.1615 35.4583 23.1146 35.875 20.9375 35.875ZM19.1719 27.5625C19.4427 27.5625 19.6875 27.5 19.9062 27.375C20.125 27.25 20.3177 27.0625 20.4844 26.8125L27.8281 15.2344C27.9219 15.0781 28.0104 14.9115 28.0938 14.7344C28.1771 14.5573 28.2188 14.3802 28.2188 14.2031C28.2188 13.8385 28.0833 13.5521 27.8125 13.3438C27.5417 13.125 27.2396 13.0156 26.9062 13.0156C26.4479 13.0156 26.0729 13.2552 25.7812 13.7344L19.1094 24.4531L15.9375 20.3594C15.7396 20.099 15.5469 19.9219 15.3594 19.8281C15.1823 19.7344 14.9792 19.6875 14.75 19.6875C14.3958 19.6875 14.099 19.8177 13.8594 20.0781C13.6198 20.3281 13.5 20.6302 13.5 20.9844C13.5 21.1615 13.5312 21.3385 13.5938 21.5156C13.6667 21.6823 13.7604 21.8438 13.875 22L17.7969 26.8125C18.0052 27.0833 18.2188 27.276 18.4375 27.3906C18.6562 27.5052 18.901 27.5625 19.1719 27.5625Z" fill="#6AD528"/>
<path d="M14.7812 34.625L13.5851 37.3762L13.5905 37.3786L14.7812 34.625ZM6.25 26.0938L3.49642 27.2845L3.49879 27.2899L6.25 26.0938ZM6.25 13.7969L9.00122 14.9931L9.00357 14.9876L6.25 13.7969ZM9.6875 8.70312L7.56617 6.58179L7.55864 6.58937L9.6875 8.70312ZM14.7656 5.25L13.5749 2.49642L13.5694 2.49879L14.7656 5.25ZM35.625 13.7969L32.8714 14.9876L32.8738 14.9931L35.625 13.7969ZM35.625 26.0938L38.3762 27.2899L38.3786 27.2845L35.625 26.0938ZM27.0781 34.625L25.8874 31.8714L25.8819 31.8738L27.0781 34.625ZM20.4844 26.8125L22.9805 28.4766L22.9995 28.4482L23.0177 28.4194L20.4844 26.8125ZM27.8281 15.2344L30.3615 16.8412L30.3814 16.8098L30.4006 16.7779L27.8281 15.2344ZM27.8125 13.3438L25.9275 15.6776L25.9552 15.6999L25.9834 15.7216L27.8125 13.3438ZM25.7812 13.7344L28.3282 15.3197L28.3361 15.307L28.3438 15.2942L25.7812 13.7344ZM19.1094 24.4531L16.7379 26.2906L19.3782 29.6983L21.6563 26.0384L19.1094 24.4531ZM15.9375 20.3594L13.549 22.1746L13.5575 22.1858L13.566 22.1968L15.9375 20.3594ZM15.3594 19.8281L13.9557 22.4795L13.9865 22.4958L14.0177 22.5114L15.3594 19.8281ZM13.8594 20.0781L16.0253 22.1538L16.0465 22.1318L16.0672 22.1093L13.8594 20.0781ZM13.5938 21.5156L10.7648 22.5141L10.8013 22.6176L10.8453 22.7181L13.5938 21.5156ZM13.875 22L11.4558 23.7741L11.5011 23.8358L11.5494 23.8952L13.875 22ZM17.7969 26.8125L20.1747 24.9834L20.1491 24.95L20.1224 24.9173L17.7969 26.8125ZM20.9375 35.875V32.875C19.1545 32.875 17.5092 32.5362 15.972 31.8714L14.7812 34.625L13.5905 37.3786C15.9075 38.3805 18.3663 38.875 20.9375 38.875V35.875ZM14.7812 34.625L15.9774 31.8738C14.4037 31.1896 13.0254 30.2515 11.8244 29.0506L9.70312 31.1719L7.5818 33.2932C9.31838 35.0298 11.3254 36.3938 13.5851 37.3762L14.7812 34.625ZM9.70312 31.1719L11.8244 29.0506C10.6235 27.8496 9.68543 26.4713 9.00121 24.8976L6.25 26.0938L3.49879 27.2899C4.48124 29.5496 5.84523 31.5566 7.5818 33.2932L9.70312 31.1719ZM6.25 26.0938L9.00357 24.903C8.33883 23.3658 8 21.7205 8 19.9375H5H2C2 22.5087 2.4945 24.9675 3.49643 27.2845L6.25 26.0938ZM5 19.9375H8C8 18.1545 8.33883 16.5165 9.00121 14.9931L6.25 13.7969L3.49879 12.6007C2.49451 14.9105 2 17.3664 2 19.9375H5ZM6.25 13.7969L9.00357 14.9876C9.69034 13.3995 10.6259 12.0158 11.8164 10.8169L9.6875 8.70312L7.55864 6.58937C5.83239 8.32796 4.47633 10.3401 3.49643 12.6061L6.25 13.7969ZM9.6875 8.70312L11.8088 10.8244C13.0097 9.62352 14.3881 8.68542 15.9618 8.00121L14.7656 5.25L13.5694 2.49879C11.3098 3.48124 9.30275 4.84523 7.56618 6.5818L9.6875 8.70312ZM14.7656 5.25L15.9564 8.00357C17.4936 7.33883 19.1389 7 20.9219 7V4V1C18.3507 1 15.8918 1.4945 13.5749 2.49643L14.7656 5.25ZM20.9219 4V7C22.7049 7 24.3502 7.33883 25.8874 8.00357L27.0781 5.25L28.2689 2.49643C25.9519 1.4945 23.4931 1 20.9219 1V4ZM27.0781 5.25L25.8874 8.00357C27.471 8.68839 28.8523 9.62619 30.0506 10.8244L32.1719 8.70312L34.2932 6.5818C32.554 4.84256 30.5394 3.47828 28.2689 2.49643L27.0781 5.25ZM32.1719 8.70312L30.0506 10.8244C31.2488 12.0227 32.1866 13.404 32.8714 14.9876L35.625 13.7969L38.3786 12.6061C37.3967 10.3356 36.0324 8.32105 34.2932 6.5818L32.1719 8.70312ZM35.625 13.7969L32.8738 14.9931C33.5362 16.5165 33.875 18.1545 33.875 19.9375H36.875H39.875C39.875 17.3664 39.3805 14.9105 38.3762 12.6007L35.625 13.7969ZM36.875 19.9375H33.875C33.875 21.7205 33.5362 23.3658 32.8714 24.903L35.625 26.0938L38.3786 27.2845C39.3805 24.9675 39.875 22.5087 39.875 19.9375H36.875ZM35.625 26.0938L32.8738 24.8976C32.1896 26.4713 31.2515 27.8496 30.0506 29.0506L32.1719 31.1719L34.2932 33.2932C36.0298 31.5566 37.3938 29.5496 38.3762 27.2899L35.625 26.0938ZM32.1719 31.1719L30.0506 29.0506C28.8523 30.2488 27.471 31.1866 25.8874 31.8714L27.0781 34.625L28.2689 37.3786C30.5394 36.3967 32.554 35.0324 34.2932 33.2932L32.1719 31.1719ZM27.0781 34.625L25.8819 31.8738C24.3585 32.5362 22.7205 32.875 20.9375 32.875V35.875V38.875C23.5086 38.875 25.9645 38.3805 28.2743 37.3762L27.0781 34.625ZM19.1719 27.5625V30.5625C19.9244 30.5625 20.6888 30.3831 21.3947 29.9797L19.9062 27.375L18.4178 24.7703C18.6862 24.6169 18.9611 24.5625 19.1719 24.5625V27.5625ZM19.9062 27.375L21.3947 29.9797C22.0885 29.5832 22.6048 29.0401 22.9805 28.4766L20.4844 26.8125L17.9882 25.1484C18.0306 25.0849 18.1615 24.9168 18.4178 24.7703L19.9062 27.375ZM20.4844 26.8125L23.0177 28.4194L30.3615 16.8412L27.8281 15.2344L25.2948 13.6275L17.951 25.2056L20.4844 26.8125ZM27.8281 15.2344L30.4006 16.7779C30.5497 16.5293 30.6852 16.2732 30.8082 16.0118L28.0938 14.7344L25.3793 13.457C25.3357 13.5497 25.294 13.627 25.2556 13.6909L27.8281 15.2344ZM28.0938 14.7344L30.8082 16.0118C31.0596 15.4775 31.2188 14.8665 31.2188 14.2031H28.2188H25.2188C25.2188 13.8939 25.2946 13.637 25.3793 13.457L28.0938 14.7344ZM28.2188 14.2031H31.2188C31.2188 12.9794 30.7062 11.7848 29.6416 10.9659L27.8125 13.3438L25.9834 15.7216C25.7719 15.559 25.5563 15.3171 25.405 14.997C25.2566 14.6831 25.2188 14.3975 25.2188 14.2031H28.2188ZM27.8125 13.3438L29.6975 11.0099C28.9186 10.3808 27.9578 10.0156 26.9062 10.0156V13.0156V16.0156C26.7379 16.0156 26.5501 15.9868 26.3615 15.9185C26.1745 15.8507 26.0293 15.7598 25.9275 15.6776L27.8125 13.3438ZM26.9062 13.0156V10.0156C25.1548 10.0156 23.9131 11.0336 23.2187 12.1745L25.7812 13.7344L28.3438 15.2942C28.3121 15.3463 28.1815 15.5413 27.8964 15.7234C27.5865 15.9214 27.2314 16.0156 26.9062 16.0156V13.0156ZM25.7812 13.7344L23.2343 12.1491L16.5625 22.8678L19.1094 24.4531L21.6563 26.0384L28.3282 15.3197L25.7812 13.7344ZM19.1094 24.4531L21.4808 22.6157L18.309 18.5219L15.9375 20.3594L13.566 22.1968L16.7379 26.2906L19.1094 24.4531ZM15.9375 20.3594L18.326 18.5441C17.9904 18.1025 17.4657 17.5272 16.701 17.1448L15.3594 19.8281L14.0177 22.5114C13.808 22.4065 13.6757 22.2963 13.6147 22.2402C13.5524 22.183 13.5323 22.1526 13.549 22.1746L15.9375 20.3594ZM15.3594 19.8281L16.763 17.1768C16.0949 16.823 15.3976 16.6875 14.75 16.6875V19.6875V22.6875C14.5608 22.6875 14.2697 22.6457 13.9557 22.4795L15.3594 19.8281ZM14.75 19.6875V16.6875C13.5576 16.6875 12.4598 17.1685 11.6516 18.047L13.8594 20.0781L16.0672 22.1093C15.9318 22.2564 15.7321 22.4161 15.4667 22.5325C15.2013 22.6489 14.949 22.6875 14.75 22.6875V19.6875ZM13.8594 20.0781L11.6934 18.0024C10.9052 18.8249 10.5 19.8763 10.5 20.9844H13.5H16.5C16.5 21.1518 16.4703 21.3667 16.3786 21.5981C16.2863 21.8307 16.1561 22.0174 16.0253 22.1538L13.8594 20.0781ZM13.5 20.9844H10.5C10.5 21.5217 10.596 22.0358 10.7648 22.5141L13.5938 21.5156L16.4227 20.5172C16.4665 20.6413 16.5 20.8013 16.5 20.9844H13.5ZM13.5938 21.5156L10.8453 22.7181C11.0121 23.0995 11.2192 23.4515 11.4558 23.7741L13.875 22L16.2942 20.2259C16.3016 20.236 16.3212 20.2651 16.3422 20.3132L13.5938 21.5156ZM13.875 22L11.5494 23.8952L15.4713 28.7077L17.7969 26.8125L20.1224 24.9173L16.2006 20.1048L13.875 22ZM17.7969 26.8125L15.419 28.6416C15.7968 29.1327 16.3241 29.6703 17.0455 30.0481L18.4375 27.3906L19.8295 24.7331C19.9764 24.8101 20.0728 24.8875 20.1232 24.933C20.1731 24.978 20.1884 25.0011 20.1747 24.9834L17.7969 26.8125ZM18.4375 27.3906L17.0455 30.0481C17.7342 30.4089 18.464 30.5625 19.1719 30.5625V27.5625V24.5625C19.3381 24.5625 19.5783 24.6015 19.8295 24.7331L18.4375 27.3906Z" fill="white" mask="url(#path-1-outside-1_1_3220)"/>
</svg>
